<?xml version="1.0" standalone="no"?><!DOCTYPE svg PUBLIC "-//W3C//DTD SVG 1.1//EN" "http://www.w3.org/Graphics/SVG/1.1/DTD/svg11.dtd"><svg t="1583723248493" class="icon" viewBox="0 0 1024 1024" version="1.1" xmlns="http://www.w3.org/2000/svg" p-id="3575" xmlns:xlink="http://www.w3.org/1999/xlink" width="32" height="32"><defs><style type="text/css"></style></defs><path d="M563.2 0h204.8c56.32 0 102.4 46.08 102.4 102.4v409.6c0 56.32-46.08 102.4-102.4 102.4h-204.8c-56.32 0-102.4-46.08-102.4-102.4V102.4c0-56.32 46.08-102.4 102.4-102.4z" fill="#5AC8FA" p-id="3576"></path><path d="M256 51.2c-30.72 0-51.2 20.48-51.2 51.2v870.4l245.76-179.2c35.84-25.6 81.92-25.6 117.76 0L819.2 972.8V102.4c0-30.72-20.48-51.2-51.2-51.2H256z m0-51.2h512c56.32 0 102.4 46.08 102.4 102.4v870.4c0 30.72-20.48 51.2-51.2 51.2-10.24 0-20.48-5.12-30.72-10.24l-245.76-179.2c-15.36-10.24-40.96-10.24-61.44 0l-245.76 179.2c-20.48 15.36-56.32 10.24-71.68-10.24-5.12-10.24-10.24-20.48-10.24-30.72V102.4c0-56.32 46.08-102.4 102.4-102.4z" fill="" p-id="3577"></path></svg>