<?xml version="1.0" standalone="no"?><!DOCTYPE svg PUBLIC "-//W3C//DTD SVG 1.1//EN" "http://www.w3.org/Graphics/SVG/1.1/DTD/svg11.dtd"><svg t="1583723180514" class="icon" viewBox="0 0 1091 1024" version="1.1" xmlns="http://www.w3.org/2000/svg" p-id="2701" xmlns:xlink="http://www.w3.org/1999/xlink" width="34.09375" height="32"><defs><style type="text/css"></style></defs><path d="M277.267282 796.909875a400.10596 400.10596 0 1 0 563.985511-567.679012 400.10596 400.10596 0 1 0-563.985511 567.679012Z" fill="#E9EAEB" p-id="2702"></path><path d="M919.565563 736.466225H606.262252l-27.125828 27.125828h-108.503311l-25.769537-27.125828h-311.94702v-488.2649h786.649007z" fill="#A3D4FF" p-id="2703"></path><path d="M585.917881 777.154967h-119.353643l-27.125827-27.125828H119.353642v-515.390728h813.774835v515.390728H613.043709l-27.125828 27.125828z m-108.503311-27.125828h97.65298l27.125827-27.125828h303.809272v-461.139073h-759.523179v461.139073h303.809272l27.125828 27.125828z" fill="#2A5082" p-id="2704"></path><path d="M553.366887 709.340397h-27.125827v-420.450331c0-43.401325 27.125828-81.377483 81.377483-81.377483h244.13245v474.701987h-244.13245c-27.125828 0-44.757616 6.781457-54.251656 27.125827z" fill="#FFFFFF" p-id="2705"></path><path d="M561.504636 722.903311h-48.82649v-434.013245c0-56.964238 37.976159-94.940397 94.940397-94.940397h257.695364v501.827814h-257.695364c-28.482119 0-36.619868 9.49404-42.045033 20.344371l-4.068874 6.781457z m-21.700662-27.125828h5.425165c16.275497-24.413245 43.401325-27.125828 62.389404-27.125827h230.569536v-447.576159h-230.569536c-50.182781 0-67.81457 35.263576-67.814569 67.814569v406.887417z" fill="#2A5082" p-id="2706"></path><path d="M499.115232 709.340397h27.125828v-420.450331c0-43.401325-27.125828-81.377483-81.377484-81.377483h-244.13245v474.701987h244.13245c25.769536 0 43.401325 6.781457 54.251656 27.125827z" fill="#FFFFFF" p-id="2707"></path><path d="M539.803974 722.903311h-48.826491l-4.068874-6.781457c-5.425166-10.850331-13.562914-20.344371-42.045033-20.344371h-257.695364v-501.827814h257.695364c56.964238 0 94.940397 37.976159 94.940398 94.940397v434.013245z m-33.907285-27.125828h5.425165v-406.887417c0-32.550993-17.631788-67.81457-67.814569-67.814569h-230.569537v447.576159h230.569537c20.344371 0 46.113907 2.712583 62.389404 27.125827z" fill="#2A5082" p-id="2708"></path><path d="M956.18543 707.984106L716.121854 533.022517v297.027814c0 9.49404 6.781457 12.206623 14.919206 5.425166l67.814569-65.101987 65.101987 115.284768c5.425166 9.49404 18.988079 10.850331 28.482119 4.068874l27.125828-17.631788c10.850331-6.781457 13.562914-18.988079 9.49404-27.125828l-62.389404-108.503311h81.377483c9.49404-1.356291 16.275497-23.056954 8.137748-28.482119z" fill="#FFFFFF" p-id="2709"></path><path d="M877.52053 907.35894c-2.712583 0-5.425166 0-8.137749-1.356291-8.137748-1.356291-14.919205-6.781457-18.988079-13.562914l-56.964238-100.365563-54.251656 52.895364c-6.781457 6.781457-16.275497 9.49404-24.413245 6.781457-8.137748-2.712583-12.206623-10.850331-12.206623-20.34437v-325.509934l261.764239 191.237086c8.137748 5.425166 10.850331 14.919205 8.137748 27.125828-2.712583 10.850331-10.850331 24.413245-23.056953 25.769536h-61.033113l51.539073 88.15894c8.137748 14.919205 2.712583 35.263576-13.562914 46.113908l-27.125828 17.631788c-6.781457 2.712583-14.919205 5.425166-21.700662 5.425165zM800.211921 748.672848l73.239735 130.203973s1.356291 1.356291 2.712582 1.356292c2.712583 0 5.425166 0 8.137749-1.356292l27.125828-17.631788c4.068874-2.712583 5.425166-6.781457 4.068874-9.49404L840.900662 722.903311h103.078146c1.356291-1.356291 1.356291-2.712583 2.712583-5.425165l-217.006623-158.686093v257.695364l70.527153-67.814569zM688.996026 410.956291h27.125828v54.251656h-27.125828zM628.424053 433.443603l23.50453-13.562914 23.735099 41.122755-23.50453 13.562914zM589.634119 483.273748l13.562914-23.490967 41.109192 23.7351-13.562914 23.477404zM580.492715 519.459603h54.251656v27.125827h-54.251656zM727.053563 461.532397l23.735099-41.122755 23.490967 13.562914-23.735099 41.122755zM589.227232 582.242331l41.109192-23.735099 13.562914 23.50453-41.109192 23.735099z" fill="#2A5082" p-id="2710"></path><path d="M499.115232 709.340397h27.125828v-420.450331c0-43.401325-18.988079-88.15894-62.389404-103.078145L268.545695 126.135099v474.701987l195.305961 58.32053c23.056954 9.49404 29.838411 27.125828 35.263576 50.182781z" fill="#FFFFFF" p-id="2711"></path><path d="M526.24106 722.903311h-27.125828c-6.781457 0-12.206623-4.068874-13.562914-10.850331-5.425166-23.056954-9.49404-32.550993-25.769537-39.33245l-195.30596-58.32053c-5.425166-1.356291-9.49404-6.781457-9.49404-13.562914v-474.701987c0-4.068874 1.356291-8.137748 5.425166-10.850331 4.068874-2.712583 8.137748-2.712583 12.206623-2.712583l195.30596 58.32053c44.757616 14.919205 71.883444 59.676821 71.883444 116.64106v420.450331c0 8.137748-6.781457 14.919205-13.562914 14.919205z m-17.631788-27.125828h2.712582v-406.887417c0-17.631788-4.068874-73.239735-52.895364-90.871523l-177.674172-52.895364v446.219867l185.81192 55.607947c27.125828 10.850331 36.619868 28.482119 42.045034 48.82649z" fill="#2A5082" p-id="2712"></path></svg>