<?xml version="1.0" standalone="no"?><!DOCTYPE svg PUBLIC "-//W3C//DTD SVG 1.1//EN" "http://www.w3.org/Graphics/SVG/1.1/DTD/svg11.dtd"><svg t="1583735659654" class="icon" viewBox="0 0 1024 1024" version="1.1" xmlns="http://www.w3.org/2000/svg" p-id="3573" xmlns:xlink="http://www.w3.org/1999/xlink" width="32" height="32"><defs><style type="text/css"></style></defs><path d="M624.233 354.752c14.809 27.447 43.837 46.141 77.151 46.141 3.421 0 6.795-0.204 10.115-0.587 20.144-3.41 38.295-12.669 52.65-25.971 15.359-15.789 24.836-37.328 24.836-61.043 0-12.763-2.745-24.896-7.673-35.842-15.829-9.928-34.546-15.674-54.61-15.674-53.493 0-97.451 40.799-102.469 92.976z" fill="#FF9702" p-id="3574"></path><path d="M924.266 433.21l-0.546-332.926-332.641-0.272L107.022 584.07c-8.616 8.616-8.616 22.635 0 31.25l301.941 301.942a21.953 21.953 0 0 0 15.625 6.473 21.953 21.953 0 0 0 15.626-6.473L924.266 433.21zM701.384 189.57c68.221 0 123.722 55.501 123.722 123.722s-55.501 123.722-123.722 123.722-123.722-55.501-123.722-123.722S633.163 189.57 701.384 189.57z" fill="#F9F455" p-id="3575"></path><path d="M959.78 64.193l-383.65-0.313L81.481 558.53c-22.699 22.698-22.699 59.632 0 82.332l301.941 301.942c10.996 10.996 25.616 17.051 41.166 17.051 15.551 0 30.17-6.056 41.166-17.051L960.41 448.148l-0.63-383.955zM408.963 917.262L107.022 615.32c-8.616-8.616-8.616-22.634 0-31.25l484.057-484.058 332.641 0.272 0.546 332.926-484.052 484.052a21.953 21.953 0 0 1-15.626 6.473 21.957 21.957 0 0 1-15.625-6.473z" fill="" p-id="3576"></path><path d="M701.384 437.013c68.221 0 123.722-55.501 123.722-123.722S769.604 189.57 701.384 189.57s-123.722 55.501-123.722 123.722 55.501 123.721 123.722 123.721z m79.928-159.563c4.928 10.946 7.673 23.079 7.673 35.842 0 23.715-9.476 45.254-24.836 61.043-13.71 14.093-32.108 23.598-52.65 25.971a87.99 87.99 0 0 1-10.115 0.587c-33.314 0-62.342-18.694-77.151-46.141-6.664-12.35-10.451-26.471-10.451-41.46 0-48.304 39.298-87.602 87.602-87.602 35.541 0 66.204 21.276 79.928 51.76z" fill="" p-id="3577"></path></svg>